:SAMPLES-PER-SECOND 30
:FULLY-SPECIFIED
:DEGREES
1
root  8.55589 40.8569 0.745023 -45.3729 -89.2313 45.0048
RightUpLeg  -1.98226 -7.23872 -2.98417
RightLeg  6.24478 -6.05126 3.49346
RightFoot  -4.00657 0.0849048 -1.87895
RightToes  0.00048216 0.542163 -0.142577
Spine  6.2247 -0.391946 -4.33578
Spine1  -2.90763 -1.11982 3.9619
HEad  -0.30366 -2.27948 -0.608918
LeftShoulder1  0.84032 -2.08794 -7.43141
LeftArm  -19.2888 14.5513 -8.02294
LeftForeArm  5.96357 -1.20089 -0.511363
LeftHand  -0.25398 0.0180481 5.50724
RightShoulder  0.472807 -0.394146 7.62618
RightArm  -19.6915 -4.41762 3.48551
RightForeArm  -6.6955 3.42625 3.85674
RightHand  -2.40022 8.45827 -20.3548
LeftUpLeg  -0.453592 2.8174 -1.79024
LeftLeg  3.89498 12.3628 -3.64574
LeftFoot  -3.79766 -0.317602 5.28153
LeftToes  1.06246e-005 4.65856e-005 -8.18501e-006
2
root  8.54231 40.8569 0.745023 -52.384 -89.2879 51.9739
RightUpLeg  -1.93318 -7.23788 -2.99291
RightLeg  6.26006 -5.94983 3.48067
RightFoot  -4.03236 0.0847307 -1.87624
RightToes  0.00048216 0.542163 -0.142577
Spine  6.31711 -0.329608 -4.37254
Spine1  -3.00029 -1.05831 3.96911
HEad  -0.154893 -2.21505 -0.605087
LeftShoulder1  0.839317 -2.06363 -7.4333
LeftArm  -19.2514 14.5655 -8.01371
LeftForeArm  6.01252 -1.24269 -0.530604
LeftHand  -0.25398 0.0180481 5.50724
RightShoulder  0.471477 -0.391926 7.63291
RightArm  -19.6092 -4.40351 3.43357
RightForeArm  -6.69538 3.3979 3.87811
RightHand  -2.41061 8.50718 -20.371
LeftUpLeg  -0.35014 2.82355 -1.78972
LeftLeg  3.81886 12.4237 -3.68218
LeftFoot  -3.80804 -0.316109 5.25823
LeftToes  1.06246e-005 4.65856e-005 -8.18501e-006
3
root  8.51532 40.8569 0.745023 -63.2265 -89.3469 62.7455
RightUpLeg  -1.83069 -7.24229 -3.0135
RightLeg  6.27082 -5.82034 3.46827
RightFoot  -4.09688 0.0861139 -1.89776
RightToes  0.00048216 0.542163 -0.142577
Spine  6.39146 -0.231097 -4.39348
Spine1  -3.04357 -0.954234 3.93909
HEad  0.0311781 -2.187 -0.593832
LeftShoulder1  0.835157 -2.03011 -7.45103
LeftArm  -19.2992 14.5085 -7.99672
LeftForeArm  6.17952 -1.20506 -0.503812
LeftHand  -0.25398 0.0180481 5.50724
RightShoulder  0.462424 -0.459567 7.65511
RightArm  -19.5108 -4.32002 3.34839
RightForeArm  -6.57764 3.34397 3.89999
RightHand  -2.43806 8.64267 -20.4045
LeftUpLeg  -0.169408 2.82954 -1.79341
LeftLeg  3.69223 12.4977 -3.7348
LeftFoot  -3.83941 -0.313058 5.21061
LeftToes  1.06246e-005 4.65856e-005 -8.18501e-006
4
root  8.48832 40.8569 0.745023 -67.7782 -89.3459 67.2652
RightUpLeg  -1.76033 -7.27224 -3.0546
RightLeg  6.28546 -5.74084 3.47793
RightFoot  -4.13412 0.0870277 -1.91197
RightToes  0.00048216 0.542163 -0.142577
Spine  6.35461 -0.185462 -4.35343
Spine1  -2.97078 -0.88889 3.82735
HEad  0.101223 -2.217 -0.586655
LeftShoulder1  0.830232 -2.01243 -7.41512
LeftArm  -19.3906 14.4403 -8.01435
LeftForeArm  6.25589 -1.13762 -0.45991
LeftHand  -0.25398 0.0180481 5.50724
RightShoulder  0.443611 -0.586094 7.66975
RightArm  -19.5067 -4.19153 3.35343
RightForeArm  -6.50049 3.2907 3.90365
RightHand  -2.46119 8.75818 -20.4305
LeftUpLeg  -0.0473928 2.80574 -1.81781
LeftLeg  3.5935 12.5381 -3.75532
LeftFoot  -3.84177 -0.309281 5.15166
LeftToes  1.06246e-005 4.65856e-005 -8.18501e-006
5
root  8.46819 40.8571 0.744798 -65.433 -89.3098 64.9368
RightUpLeg  -1.74712 -7.31731 -3.10482
RightLeg  6.30656 -5.70436 3.5059
RightFoot  -4.14855 0.0851804 -1.88324
RightToes  0.00048216 0.542163 -0.142577
Spine  6.28329 -0.201842 -4.27834
Spine1  -2.88972 -0.876237 3.66026
HEad  0.112352 -2.26056 -0.598167
LeftShoulder1  0.8271 -2.03449 -7.27133
LeftArm  -19.4025 14.4864 -8.09318
LeftForeArm  6.22299 -1.14716 -0.456259
LeftHand  -0.25398 0.0180481 5.50724
RightShoulder  0.434035 -0.652116 7.68732
RightArm  -19.5768 -4.11792 3.4029
RightForeArm  -6.41056 3.24781 3.8822
RightHand  -2.45897 8.79971 -20.3561
LeftUpLeg  -0.0193965 2.77852 -1.8494
LeftLeg  3.55798 12.5507 -3.75609
LeftFoot  -3.81669 -0.307881 5.1298
LeftToes  1.06246e-005 4.65856e-005 -8.18501e-006
6
root  8.4499 40.8563 0.74206 -62.0923 -89.2797 61.605
RightUpLeg  -1.72277 -7.34747 -3.12548
RightLeg  6.321 -5.73156 3.52746
RightFoot  -4.21511 0.0843683 -1.8706
RightToes  0.00048216 0.542163 -0.142577
Spine  6.261 -0.215194 -4.24813
Spine1  -2.85141 -0.877114 3.58279
HEad  0.155111 -2.30937 -0.636219
LeftShoulder1  0.82776 -2.06961 -7.15959
LeftArm  -19.3896 14.5599 -8.17103
LeftForeArm  6.27394 -1.15998 -0.456944
LeftHand  -0.25398 0.0180481 5.50724
RightShoulder  0.43946 -0.624394 7.73447
RightArm  -19.6271 -4.10577 3.31662
RightForeArm  -6.11954 3.20273 3.84295
RightHand  -2.43782 8.80017 -20.1881
LeftUpLeg  -0.00366182 2.79603 -1.84381
LeftLeg  3.57333 12.5067 -3.76939
LeftFoot  -3.84261 -0.308837 5.14472
LeftToes  1.06246e-005 4.65856e-005 -8.18501e-006
7
root  8.42543 40.8522 0.733297 -58.3369 -89.2569 57.8176
RightUpLeg  -1.64552 -7.34659 -3.11287
RightLeg  6.33938 -5.82455 3.52147
RightFoot  -4.3099 0.0876224 -1.92122
RightToes  0.00048216 0.542163 -0.142577
Spine  6.24413 -0.209954 -4.30567
Spine1  -2.75923 -0.889487 3.66882
HEad  0.152655 -2.30174 -0.675823
LeftShoulder1  0.825162 -2.03859 -7.22433
LeftArm  -19.4208 14.501 -8.15769
LeftForeArm  6.27611 -1.09415 -0.438494
LeftHand  -0.25398 0.0180481 5.50724
RightShoulder  0.440448 -0.622192 7.75983
RightArm  -19.668 -4.06806 3.17777
RightForeArm  -5.86792 3.18718 3.81104
RightHand  -2.4373 8.81835 -20.1593
LeftUpLeg  0.0631739 2.83098 -1.80867
LeftLeg  3.59516 12.3923 -3.78184
LeftFoot  -3.91589 -0.307605 5.12549
LeftToes  1.06246e-005 4.65856e-005 -8.18501e-006
8
root  8.39507 40.8515 0.723198 -53.0167 -89.1964 52.4641
RightUpLeg  -1.57533 -7.32729 -3.11249
RightLeg  6.40426 -5.90226 3.487
RightFoot  -4.38608 0.0863804 -1.91345
RightToes  0.00048216 0.542163 -0.142577
Spine  6.16383 -0.244142 -4.3907
Spine1  -2.56471 -0.944859 3.76174
HEad  0.000209175 -2.14423 -0.671982
LeftShoulder1  0.814301 -1.92307 -7.35038
LeftArm  -19.3471 14.3932 -8.05282
LeftForeArm  5.94179 -1.07122 -0.485799
LeftHand  -0.25398 0.0180481 5.50724
RightShoulder  0.424747 -0.708851 7.66012
RightArm  -19.7799 -4.02345 3.29339
RightForeArm  -5.9621 3.2726 3.80009
RightHand  -2.47133 8.87191 -20.3559
LeftUpLeg  0.137821 2.82578 -1.80466
LeftLeg  3.60719 12.284 -3.76746
LeftFoot  -3.94902 -0.304158 5.07353
LeftToes  1.06246e-005 4.65856e-005 -8.18501e-006
9
root  8.36538 40.8476 0.713853 -48.8827 -89.1017 48.3501
RightUpLeg  -1.61501 -7.31747 -3.13799
RightLeg  6.605 -5.91928 3.41625
RightFoot  -4.68042 0.0623532 -1.61683
RightToes  0.00048216 0.542163 -0.142577
Spine  6.06242 -0.317626 -4.43243
Spine1  -2.39994 -1.0194 3.7301
HEad  -0.19747 -1.95608 -0.652103
LeftShoulder1  0.800064 -1.8105 -7.40315
LeftArm  -19.1466 14.3854 -7.92081
LeftForeArm  5.63335 -1.16511 -0.591597
LeftHand  -0.25398 0.0180481 5.50724
RightShoulder  0.41128 -0.767018 7.47207
RightArm  -19.9004 -4.07898 3.55652
RightForeArm  -6.04479 3.43064 3.79309
RightHand  -2.48105 8.87414 -20.4293
LeftUpLeg  0.116394 2.80831 -1.84065
LeftLeg  3.71238 12.2347 -3.72992
LeftFoot  -4.02148 -0.299696 5.06223
LeftToes  1.06246e-005 4.65856e-005 -8.18501e-006
10
root  8.33865 40.8219 0.705828 -47.3113 -89.0288 46.8622
RightUpLeg  -1.83322 -7.40138 -3.15711
RightLeg  7.10193 -5.8669 3.27142
RightFoot  -5.61197 0.00488884 -0.844742
RightToes  0.00048216 0.542163 -0.142577
Spine  6.01473 -0.35233 -4.46227
Spine1  -2.39178 -1.0591 3.72879
HEad  -0.243301 -2.00731 -0.736343
LeftShoulder1  0.799549 -1.76302 -7.54212
LeftArm  -19.251 14.3725 -7.80087
LeftForeArm  6.02934 -1.20217 -0.531205
LeftHand  -0.25398 0.0180481 5.50724
RightShoulder  0.421254 -0.697911 7.45409
RightArm  -19.9126 -4.1791 3.40829
RightForeArm  -5.99171 3.55566 3.79152
RightHand  -2.44328 8.74156 -20.3133
LeftUpLeg  -0.102396 2.83758 -1.87652
LeftLeg  4.13048 12.1686 -3.62734
LeftFoot  -4.3996 -0.278046 5.01851
LeftToes  1.06246e-005 4.65856e-005 -8.18501e-006
11
root  8.307 40.7721 0.702756 -45.5075 -88.9666 45.1682
RightUpLeg  -2.19395 -7.72309 -3.1799
RightLeg  7.97808 -5.58171 3.03495
RightFoot  -7.22187 -0.063952 0.445993
RightToes  0.00048216 0.542163 -0.142577
Spine  6.01117 -0.360604 -4.52445
Spine1  -2.47177 -1.10034 3.90561
HEad  -0.108549 -2.23236 -0.98054
LeftShoulder1  0.810564 -1.72865 -7.8867
LeftArm  -19.9346 14.3459 -7.76676
LeftForeArm  6.87747 -1.25662 -0.216877
LeftHand  -0.25398 0.0180481 5.50724
RightShoulder  0.448127 -0.590248 7.86771
RightArm  -19.9935 -4.16601 2.81617
RightForeArm  -7.17293 3.77636 3.85771
RightHand  -2.51401 8.70202 -20.9281
LeftUpLeg  -0.547857 2.92397 -1.94418
LeftLeg  5.0057 11.9936 -3.32859
LeftFoot  -5.17591 -0.225103 4.75292
LeftToes  1.06246e-005 4.65856e-005 -8.18501e-006
12
root  8.25608 40.7197 0.707886 -41.72 -88.8894 41.4331
RightUpLeg  -2.49326 -8.21356 -3.23344
RightLeg  9.00817 -4.9921 2.77825
RightFoot  -9.02548 -0.100698 1.94951
RightToes  0.00048216 0.542163 -0.142577
Spine  6.0326 -0.463716 -4.51946
Spine1  -2.48585 -1.23453 4.07943
HEad  0.12455 -2.15357 -1.26764
LeftShoulder1  0.813062 -1.65593 -8.18062
LeftArm  -20.6628 14.8634 -7.98903
LeftForeArm  7.31036 -2.08487 0.00966958
LeftHand  -0.25398 0.0180481 5.50724
RightShoulder  0.478002 -0.538979 8.69983
RightArm  -20.5016 -4.17649 2.7047
RightForeArm  -10.8585 4.54342 4.04708
RightHand  -2.90116 9.2708 -23.0865
LeftUpLeg  -1.0614 3.13889 -2.0996
LeftLeg  6.20501 11.7121 -2.76972
LeftFoot  -6.14036 -0.158122 4.29365
LeftToes  1.06246e-005 4.65856e-005 -8.18501e-006
